<svg xmlns="http://www.w3.org/2000/svg" xmlns:xlink="http://www.w3.org/1999/xlink" xmlns:s="https://github.com/nturley/netlistsvg" width="1042" height="1547.5">
  <style>svg {
    stroke:#000;
    fill:none;
  }
  text {
    fill:#000;
    stroke:none;
    font-size:10px;
    font-weight: bold;
    font-family: "Courier New", monospace;
  }
  .nodelabel {
    text-anchor: middle;
  }
  .inputPortLabel {
    text-anchor: end;
  }
  .splitjoinBody {
    fill:#000;
  }</style>
  <g s:type="add" transform="translate(537,642.5)" s:width="25" s:height="25" id="cell_$add$top.v:80$7">
    <s:alias val="$add"/>
    <circle r="12.5" cx="12.5" cy="12.5" class="cell_$add$top.v:80$7"/>
    <line x1="7.5" x2="17.5" y1="12.5" y2="12.5" class="cell_$add$top.v:80$7"/>
    <line x1="12.5" x2="12.5" y1="7.5" y2="17.5" class="cell_$add$top.v:80$7"/>
    <g s:x="3" s:y="5" s:pid="A"/>
    <g s:x="3" s:y="20" s:pid="B"/>
    <g s:x="25" s:y="12.5" s:pid="Y"/>
  </g>
  <g s:type="ge" transform="translate(940,772.5)" s:width="25" s:height="25" id="cell_$ge$top.v:82$8">
    <s:alias val="$ge"/>
    <circle r="12.5" cx="12.5" cy="12.5" class="cell_$ge$top.v:82$8"/>
    <line x1="7.5" x2="17.5" y1="7.5" y2="12.5" class="cell_$ge$top.v:82$8"/>
    <line x1="7.5" x2="17.5" y1="17.5" y2="12.5" class="cell_$ge$top.v:82$8"/>
    <line x1="7.5" x2="17.5" y1="20" y2="15" class="cell_$ge$top.v:82$8"/>
    <g s:x="3" s:y="5" s:pid="A"/>
    <g s:x="3" s:y="20" s:pid="B"/>
    <g s:x="25" s:y="12.5" s:pid="Y"/>
  </g>
  <g s:type="and" transform="translate(467,234)" s:width="30" s:height="25" id="cell_$logic_and$top.v:65$4">
    <s:alias val="$and"/>
    <s:alias val="$logic_and"/>
    <s:alias val="$_AND_"/>
    <path d="M0,0 L0,25 L15,25 A15 12.5 0 0 0 15,0 Z" class="cell_$logic_and$top.v:65$4"/>
    <g s:x="0" s:y="5" s:pid="A"/>
    <g s:x="0" s:y="20" s:pid="B"/>
    <g s:x="30" s:y="12.5" s:pid="Y"/>
  </g>
  <g s:type="and" transform="translate(402,366)" s:width="30" s:height="25" id="cell_$logic_and$top.v:78$6">
    <s:alias val="$and"/>
    <s:alias val="$logic_and"/>
    <s:alias val="$_AND_"/>
    <path d="M0,0 L0,25 L15,25 A15 12.5 0 0 0 15,0 Z" class="cell_$logic_and$top.v:78$6"/>
    <g s:x="0" s:y="5" s:pid="A"/>
    <g s:x="0" s:y="20" s:pid="B"/>
    <g s:x="30" s:y="12.5" s:pid="Y"/>
  </g>
  <g s:type="and" transform="translate(320,388.5)" s:width="30" s:height="25" id="cell_$logic_and$top.v:82$9">
    <s:alias val="$and"/>
    <s:alias val="$logic_and"/>
    <s:alias val="$_AND_"/>
    <path d="M0,0 L0,25 L15,25 A15 12.5 0 0 0 15,0 Z" class="cell_$logic_and$top.v:82$9"/>
    <g s:x="0" s:y="5" s:pid="A"/>
    <g s:x="0" s:y="20" s:pid="B"/>
    <g s:x="30" s:y="12.5" s:pid="Y"/>
  </g>
  <g s:type="not" transform="translate(402,229)" s:width="30" s:height="20" id="cell_$logic_not$top.v:65$2">
    <s:alias val="$_NOT_"/>
    <s:alias val="$not"/>
    <s:alias val="$logic_not"/>
    <path d="M0,0 L0,20 L20,10 Z" class="cell_$logic_not$top.v:65$2"/>
    <circle cx="23" cy="10" r="3" class="cell_$logic_not$top.v:65$2"/>
    <g s:x="0" s:y="10" s:pid="A"/>
    <g s:x="25" s:y="10" s:pid="Y"/>
  </g>
  <g s:type="not" transform="translate(940,118)" s:width="30" s:height="20" id="cell_$logic_not$top.v:65$3">
    <s:alias val="$_NOT_"/>
    <s:alias val="$not"/>
    <s:alias val="$logic_not"/>
    <path d="M0,0 L0,20 L20,10 Z" class="cell_$logic_not$top.v:65$3"/>
    <circle cx="23" cy="10" r="3" class="cell_$logic_not$top.v:65$3"/>
    <g s:x="0" s:y="10" s:pid="A"/>
    <g s:x="25" s:y="10" s:pid="Y"/>
  </g>
  <g s:type="lt" transform="translate(940,579)" s:width="25" s:height="25" id="cell_$lt$top.v:78$5">
    <s:alias val="$lt"/>
    <circle r="12.5" cx="12.5" cy="12.5" class="cell_$lt$top.v:78$5"/>
    <line x1="7.5" x2="17.5" y1="12.5" y2="7.5" class="cell_$lt$top.v:78$5"/>
    <line x1="7.5" x2="17.5" y1="12.5" y2="17.5" class="cell_$lt$top.v:78$5"/>
    <g s:x="3" s:y="5" s:pid="A"/>
    <g s:x="3" s:y="20" s:pid="B"/>
    <g s:x="25" s:y="12.5" s:pid="Y"/>
  </g>
  <g s:type="dff" transform="translate(597,917.5)" s:width="30" s:height="40" id="cell_$procdff$145">
    <s:alias val="$dff"/>
    <s:alias val="$_DFF_"/>
    <s:alias val="$_DFF_P_"/>
    <rect width="30" height="40" x="0" y="0" class="cell_$procdff$145"/>
    <path d="M0,35 L5,30 L0,25" class="cell_$procdff$145"/>
    <g s:x="30" s:y="10" s:pid="Q"/>
    <g s:x="0" s:y="30" s:pid="CLK"/>
    <g s:x="0" s:y="30" s:pid="C"/>
    <g s:x="0" s:y="10" s:pid="D"/>
  </g>
  <g s:type="dff" transform="translate(834.25,118)" s:width="30" s:height="40" id="cell_$procdff$146">
    <s:alias val="$dff"/>
    <s:alias val="$_DFF_"/>
    <s:alias val="$_DFF_P_"/>
    <rect width="30" height="40" x="0" y="0" class="cell_$procdff$146"/>
    <path d="M0,35 L5,30 L0,25" class="cell_$procdff$146"/>
    <g s:x="30" s:y="10" s:pid="Q"/>
    <g s:x="0" s:y="30" s:pid="CLK"/>
    <g s:x="0" s:y="30" s:pid="C"/>
    <g s:x="0" s:y="10" s:pid="D"/>
  </g>
  <g s:type="dff" transform="translate(834.25,574)" s:width="30" s:height="40" id="cell_$procdff$147">
    <s:alias val="$dff"/>
    <s:alias val="$_DFF_"/>
    <s:alias val="$_DFF_P_"/>
    <rect width="30" height="40" x="0" y="0" class="cell_$procdff$147"/>
    <path d="M0,35 L5,30 L0,25" class="cell_$procdff$147"/>
    <g s:x="30" s:y="10" s:pid="Q"/>
    <g s:x="0" s:y="30" s:pid="CLK"/>
    <g s:x="0" s:y="30" s:pid="C"/>
    <g s:x="0" s:y="10" s:pid="D"/>
  </g>
  <g s:type="mux" transform="translate(540.3333333333334,351)" s:width="20" s:height="40" id="cell_$procmux$106">
    <s:alias val="$pmux"/>
    <s:alias val="$mux"/>
    <s:alias val="$_MUX_"/>
    <path d="M0,0 L20,10 L20,30 L0,40 Z" class="cell_$procmux$106"/>
    <g s:x="0" s:y="10" s:pid="A"/>
    <g s:x="0" s:y="30" s:pid="B"/>
    <g s:x="10" s:y="35" s:pid="S"/>
    <g s:x="20" s:y="20" s:pid="Y"/>
  </g>
  <g s:type="mux" transform="translate(600.3333333333334,625)" s:width="20" s:height="40" id="cell_$procmux$109">
    <s:alias val="$pmux"/>
    <s:alias val="$mux"/>
    <s:alias val="$_MUX_"/>
    <path d="M0,0 L20,10 L20,30 L0,40 Z" class="cell_$procmux$109"/>
    <g s:x="0" s:y="10" s:pid="A"/>
    <g s:x="0" s:y="30" s:pid="B"/>
    <g s:x="10" s:y="35" s:pid="S"/>
    <g s:x="20" s:y="20" s:pid="Y"/>
  </g>
  <g s:type="mux" transform="translate(699.3333333333334,290)" s:width="20" s:height="40" id="cell_$procmux$112">
    <s:alias val="$pmux"/>
    <s:alias val="$mux"/>
    <s:alias val="$_MUX_"/>
    <path d="M0,0 L20,10 L20,30 L0,40 Z" class="cell_$procmux$112"/>
    <g s:x="0" s:y="10" s:pid="A"/>
    <g s:x="0" s:y="30" s:pid="B"/>
    <g s:x="10" s:y="35" s:pid="S"/>
    <g s:x="20" s:y="20" s:pid="Y"/>
  </g>
  <g s:type="mux" transform="translate(540.3333333333334,159)" s:width="20" s:height="40" id="cell_$procmux$114">
    <s:alias val="$pmux"/>
    <s:alias val="$mux"/>
    <s:alias val="$_MUX_"/>
    <path d="M0,0 L20,10 L20,30 L0,40 Z" class="cell_$procmux$114"/>
    <g s:x="0" s:y="10" s:pid="A"/>
    <g s:x="0" s:y="30" s:pid="B"/>
    <g s:x="10" s:y="35" s:pid="S"/>
    <g s:x="20" s:y="20" s:pid="Y"/>
  </g>
  <g s:type="mux" transform="translate(603.6666666666666,78)" s:width="20" s:height="40" id="cell_$procmux$117">
    <s:alias val="$pmux"/>
    <s:alias val="$mux"/>
    <s:alias val="$_MUX_"/>
    <path d="M0,0 L20,10 L20,30 L0,40 Z" class="cell_$procmux$117"/>
    <g s:x="0" s:y="10" s:pid="A"/>
    <g s:x="0" s:y="30" s:pid="B"/>
    <g s:x="10" s:y="35" s:pid="S"/>
    <g s:x="20" s:y="20" s:pid="Y"/>
  </g>
  <g s:type="mux" transform="translate(696,88)" s:width="20" s:height="40" id="cell_$procmux$120">
    <s:alias val="$pmux"/>
    <s:alias val="$mux"/>
    <s:alias val="$_MUX_"/>
    <path d="M0,0 L20,10 L20,30 L0,40 Z" class="cell_$procmux$120"/>
    <g s:x="0" s:y="10" s:pid="A"/>
    <g s:x="0" s:y="30" s:pid="B"/>
    <g s:x="10" s:y="35" s:pid="S"/>
    <g s:x="20" s:y="20" s:pid="Y"/>
  </g>
  <g s:type="mux" transform="translate(408,682.5)" s:width="20" s:height="40" id="cell_$procmux$122">
    <s:alias val="$pmux"/>
    <s:alias val="$mux"/>
    <s:alias val="$_MUX_"/>
    <path d="M0,0 L20,10 L20,30 L0,40 Z" class="cell_$procmux$122"/>
    <g s:x="0" s:y="10" s:pid="A"/>
    <g s:x="0" s:y="30" s:pid="B"/>
    <g s:x="10" s:y="35" s:pid="S"/>
    <g s:x="20" s:y="20" s:pid="Y"/>
  </g>
  <g s:type="mux" transform="translate(473.6666666666667,692.5)" s:width="20" s:height="40" id="cell_$procmux$125">
    <s:alias val="$pmux"/>
    <s:alias val="$mux"/>
    <s:alias val="$_MUX_"/>
    <path d="M0,0 L20,10 L20,30 L0,40 Z" class="cell_$procmux$125"/>
    <g s:x="0" s:y="10" s:pid="A"/>
    <g s:x="0" s:y="30" s:pid="B"/>
    <g s:x="10" s:y="35" s:pid="S"/>
    <g s:x="20" s:y="20" s:pid="Y"/>
  </g>
  <g s:type="mux" transform="translate(327.3333333333333,448.5)" s:width="20" s:height="40" id="cell_$procmux$129">
    <s:alias val="$pmux"/>
    <s:alias val="$mux"/>
    <s:alias val="$_MUX_"/>
    <path d="M0,0 L20,10 L20,30 L0,40 Z" class="cell_$procmux$129"/>
    <g s:x="0" s:y="10" s:pid="A"/>
    <g s:x="0" s:y="30" s:pid="B"/>
    <g s:x="10" s:y="35" s:pid="S"/>
    <g s:x="20" s:y="20" s:pid="Y"/>
  </g>
  <g s:type="mux" transform="translate(470.3333333333333,543)" s:width="20" s:height="40" id="cell_$procmux$132">
    <s:alias val="$pmux"/>
    <s:alias val="$mux"/>
    <s:alias val="$_MUX_"/>
    <path d="M0,0 L20,10 L20,30 L0,40 Z" class="cell_$procmux$132"/>
    <g s:x="0" s:y="10" s:pid="A"/>
    <g s:x="0" s:y="30" s:pid="B"/>
    <g s:x="10" s:y="35" s:pid="S"/>
    <g s:x="20" s:y="20" s:pid="Y"/>
  </g>
  <g s:type="mux" transform="translate(538.6666666666666,702.5)" s:width="20" s:height="40" id="cell_$procmux$134">
    <s:alias val="$pmux"/>
    <s:alias val="$mux"/>
    <s:alias val="$_MUX_"/>
    <path d="M0,0 L20,10 L20,30 L0,40 Z" class="cell_$procmux$134"/>
    <g s:x="0" s:y="10" s:pid="A"/>
    <g s:x="0" s:y="30" s:pid="B"/>
    <g s:x="10" s:y="35" s:pid="S"/>
    <g s:x="20" s:y="20" s:pid="Y"/>
  </g>
  <g s:type="generic" transform="translate(687,1160)" s:width="30" s:height="40" id="cell_motor_control">
    <text x="15" y="-4" class="nodelabel cell_motor_control" s:attribute="ref">stepper_motor_control</text>
    <rect width="30" height="20" s:generic="body" class="cell_motor_control"/>
    <g transform="translate(0,10)" s:x="0" s:y="10" s:pid="in0" id="port_motor_control~clk">
      <text x="-3" y="-4" class="inputPortLabel cell_motor_control">clk</text>
    </g>
    <g transform="translate(30,10)" s:x="30" s:y="10" s:pid="out0" id="port_motor_control~motor">
      <text x="5" y="-4" style="fill:#000; stroke:none" class="cell_motor_control">motor</text>
    </g>
  </g>
  <g s:type="generic" transform="translate(681,1420)" s:width="30" s:height="40" id="cell_motor_control2">
    <text x="15" y="-4" class="nodelabel cell_motor_control2" s:attribute="ref">stepper_motor_control</text>
    <rect width="30" height="20" s:generic="body" class="cell_motor_control2"/>
    <g transform="translate(0,10)" s:x="0" s:y="10" s:pid="in0" id="port_motor_control2~clk">
      <text x="-3" y="-4" class="inputPortLabel cell_motor_control2">clk</text>
    </g>
    <g transform="translate(30,10)" s:x="30" s:y="10" s:pid="out0" id="port_motor_control2~motor">
      <text x="5" y="-4" style="fill:#000; stroke:none" class="cell_motor_control2">motor</text>
    </g>
  </g>
  <g s:type="generic" transform="translate(168,542.5)" s:width="30" s:height="40" id="cell_sensor">
    <text x="15" y="-4" class="nodelabel cell_sensor" s:attribute="ref">sensor_finish</text>
    <rect width="30" height="80" s:generic="body" class="cell_sensor"/>
    <g transform="translate(0,10)" s:x="0" s:y="10" s:pid="in0" id="port_sensor~mclk">
      <text x="-3" y="-4" class="inputPortLabel cell_sensor">mclk</text>
    </g>
    <g transform="translate(0,30)" s:x="0" s:y="10" s:pid="in0" id="port_sensor~sensor_clk">
      <text x="-3" y="-4" class="inputPortLabel cell_sensor">sensor_clk</text>
    </g>
    <g transform="translate(30,10)" s:x="30" s:y="10" s:pid="out0" id="port_sensor~es_otro">
      <text x="5" y="-4" style="fill:#000; stroke:none" class="cell_sensor">es_otro</text>
    </g>
    <g transform="translate(30,30)" s:x="30" s:y="10" s:pid="out0" id="port_sensor~es_rojo">
      <text x="5" y="-4" style="fill:#000; stroke:none" class="cell_sensor">es_rojo</text>
    </g>
    <g transform="translate(30,50)" s:x="30" s:y="10" s:pid="out0" id="port_sensor~es_verde">
      <text x="5" y="-4" style="fill:#000; stroke:none" class="cell_sensor">es_verde</text>
    </g>
    <g transform="translate(30,70)" s:x="30" s:y="10" s:pid="out0" id="port_sensor~filtro_sel">
      <text x="5" y="-4" style="fill:#000; stroke:none" class="cell_sensor">filtro_sel</text>
    </g>
  </g>
  <g s:type="generic" transform="translate(831,995)" s:width="30" s:height="40" id="cell_servo1">
    <text x="15" y="-4" class="nodelabel cell_servo1" s:attribute="ref">servomotor_finish</text>
    <rect width="30" height="40" s:generic="body" class="cell_servo1"/>
    <g transform="translate(0,10)" s:x="0" s:y="10" s:pid="in0" id="port_servo1~clk">
      <text x="-3" y="-4" class="inputPortLabel cell_servo1">clk</text>
    </g>
    <g transform="translate(0,30)" s:x="0" s:y="10" s:pid="in0" id="port_servo1~state">
      <text x="-3" y="-4" class="inputPortLabel cell_servo1">state</text>
    </g>
    <g transform="translate(30,10)" s:x="30" s:y="10" s:pid="out0" id="port_servo1~pwm_out">
      <text x="5" y="-4" style="fill:#000; stroke:none" class="cell_servo1">pwm_out</text>
    </g>
  </g>
  <g s:type="generic" transform="translate(831,907)" s:width="30" s:height="40" id="cell_servo2">
    <text x="15" y="-4" class="nodelabel cell_servo2" s:attribute="ref">servomotor_finish</text>
    <rect width="30" height="40" s:generic="body" class="cell_servo2"/>
    <g transform="translate(0,10)" s:x="0" s:y="10" s:pid="in0" id="port_servo2~clk">
      <text x="-3" y="-4" class="inputPortLabel cell_servo2">clk</text>
    </g>
    <g transform="translate(0,30)" s:x="0" s:y="10" s:pid="in0" id="port_servo2~state">
      <text x="-3" y="-4" class="inputPortLabel cell_servo2">state</text>
    </g>
    <g transform="translate(30,10)" s:x="30" s:y="10" s:pid="out0" id="port_servo2~pwm_out">
      <text x="5" y="-4" style="fill:#000; stroke:none" class="cell_servo2">pwm_out</text>
    </g>
  </g>
  <g s:type="inputExt" transform="translate(12,1160.5)" s:width="30" s:height="20" id="cell_mclk">
    <text x="15" y="-4" class="nodelabel cell_mclk" s:attribute="ref">mclk</text>
    <s:alias val="$_inputExt_"/>
    <path d="M0,0 L0,20 L15,20 L30,10 L15,0 Z" class="cell_mclk"/>
    <g s:x="28" s:y="10" s:pid="Y"/>
  </g>
  <g s:type="inputExt" transform="translate(12,563)" s:width="30" s:height="20" id="cell_sensor_clk">
    <text x="15" y="-4" class="nodelabel cell_sensor_clk" s:attribute="ref">sensor_clk</text>
    <s:alias val="$_inputExt_"/>
    <path d="M0,0 L0,20 L15,20 L30,10 L15,0 Z" class="cell_sensor_clk"/>
    <g s:x="28" s:y="10" s:pid="Y"/>
  </g>
  <g s:type="inputExt" transform="translate(320,229)" s:width="30" s:height="20" id="cell_detecto">
    <text x="15" y="-4" class="nodelabel cell_detecto" s:attribute="ref">detecto</text>
    <s:alias val="$_inputExt_"/>
    <path d="M0,0 L0,20 L15,20 L30,10 L15,0 Z" class="cell_detecto"/>
    <g s:x="28" s:y="10" s:pid="Y"/>
  </g>
  <g s:type="outputExt" transform="translate(940,842.5)" s:width="30" s:height="20" id="cell_filtro_sel">
    <text x="15" y="-4" class="nodelabel cell_filtro_sel" s:attribute="ref">filtro_sel</text>
    <s:alias val="$_outputExt_"/>
    <path d="M30,0 L30,20 L15,20 L0,10 L15,0 Z" class="cell_filtro_sel"/>
    <g s:x="0" s:y="10" s:pid="A"/>
  </g>
  <g s:type="outputExt" transform="translate(940,995.5)" s:width="30" s:height="20" id="cell_pwm_out1">
    <text x="15" y="-4" class="nodelabel cell_pwm_out1" s:attribute="ref">pwm_out1</text>
    <s:alias val="$_outputExt_"/>
    <path d="M30,0 L30,20 L15,20 L0,10 L15,0 Z" class="cell_pwm_out1"/>
    <g s:x="0" s:y="10" s:pid="A"/>
  </g>
  <g s:type="outputExt" transform="translate(940,907.5)" s:width="30" s:height="20" id="cell_pwm_out2">
    <text x="15" y="-4" class="nodelabel cell_pwm_out2" s:attribute="ref">pwm_out2</text>
    <s:alias val="$_outputExt_"/>
    <path d="M30,0 L30,20 L15,20 L0,10 L15,0 Z" class="cell_pwm_out2"/>
    <g s:x="0" s:y="10" s:pid="A"/>
  </g>
  <g s:type="outputExt" transform="translate(940,1060.5)" s:width="30" s:height="20" id="cell_motor1">
    <text x="15" y="-4" class="nodelabel cell_motor1" s:attribute="ref">motor1</text>
    <s:alias val="$_outputExt_"/>
    <path d="M30,0 L30,20 L15,20 L0,10 L15,0 Z" class="cell_motor1"/>
    <g s:x="0" s:y="10" s:pid="A"/>
  </g>
  <g s:type="outputExt" transform="translate(940,1125.5)" s:width="30" s:height="20" id="cell_motor2">
    <text x="15" y="-4" class="nodelabel cell_motor2" s:attribute="ref">motor2</text>
    <s:alias val="$_outputExt_"/>
    <path d="M30,0 L30,20 L15,20 L0,10 L15,0 Z" class="cell_motor2"/>
    <g s:x="0" s:y="10" s:pid="A"/>
  </g>
  <g s:type="outputExt" transform="translate(940,1190.5)" s:width="30" s:height="20" id="cell_motor3">
    <text x="15" y="-4" class="nodelabel cell_motor3" s:attribute="ref">motor3</text>
    <s:alias val="$_outputExt_"/>
    <path d="M30,0 L30,20 L15,20 L0,10 L15,0 Z" class="cell_motor3"/>
    <g s:x="0" s:y="10" s:pid="A"/>
  </g>
  <g s:type="outputExt" transform="translate(940,1255.5)" s:width="30" s:height="20" id="cell_motor4">
    <text x="15" y="-4" class="nodelabel cell_motor4" s:attribute="ref">motor4</text>
    <s:alias val="$_outputExt_"/>
    <path d="M30,0 L30,20 L15,20 L0,10 L15,0 Z" class="cell_motor4"/>
    <g s:x="0" s:y="10" s:pid="A"/>
  </g>
  <g s:type="outputExt" transform="translate(940,1320.5)" s:width="30" s:height="20" id="cell_motor5">
    <text x="15" y="-4" class="nodelabel cell_motor5" s:attribute="ref">motor5</text>
    <s:alias val="$_outputExt_"/>
    <path d="M30,0 L30,20 L15,20 L0,10 L15,0 Z" class="cell_motor5"/>
    <g s:x="0" s:y="10" s:pid="A"/>
  </g>
  <g s:type="outputExt" transform="translate(940,1385.5)" s:width="30" s:height="20" id="cell_motor6">
    <text x="15" y="-4" class="nodelabel cell_motor6" s:attribute="ref">motor6</text>
    <s:alias val="$_outputExt_"/>
    <path d="M30,0 L30,20 L15,20 L0,10 L15,0 Z" class="cell_motor6"/>
    <g s:x="0" s:y="10" s:pid="A"/>
  </g>
  <g s:type="outputExt" transform="translate(940,1450.5)" s:width="30" s:height="20" id="cell_motor7">
    <text x="15" y="-4" class="nodelabel cell_motor7" s:attribute="ref">motor7</text>
    <s:alias val="$_outputExt_"/>
    <path d="M30,0 L30,20 L15,20 L0,10 L15,0 Z" class="cell_motor7"/>
    <g s:x="0" s:y="10" s:pid="A"/>
  </g>
  <g s:type="outputExt" transform="translate(940,1515.5)" s:width="30" s:height="20" id="cell_motor8">
    <text x="15" y="-4" class="nodelabel cell_motor8" s:attribute="ref">motor8</text>
    <s:alias val="$_outputExt_"/>
    <path d="M30,0 L30,20 L15,20 L0,10 L15,0 Z" class="cell_motor8"/>
    <g s:x="0" s:y="10" s:pid="A"/>
  </g>
  <g s:type="constant" transform="translate(168,468.5)" s:width="30" s:height="20" id="cell_1">
    <text x="15" y="-4" class="nodelabel cell_1" s:attribute="ref">1</text>
    <s:alias val="$_constant_"/>
    <rect width="30" height="20" class="cell_1"/>
    <g s:x="30" s:y="10" s:pid="Y"/>
  </g>
  <g s:type="constant" transform="translate(831,782.5)" s:width="30" s:height="20" id="cell_10111110101111000010000000">
    <text x="15" y="-4" class="nodelabel cell_10111110101111000010000000" s:attribute="ref">0x2faf080</text>
    <s:alias val="$_constant_"/>
    <rect width="30" height="20" class="cell_10111110101111000010000000"/>
    <g s:x="30" s:y="10" s:pid="Y"/>
  </g>
  <g s:type="constant" transform="translate(467,371)" s:width="30" s:height="20" id="cell_00000000000000000000000000000000">
    <text x="15" y="-4" class="nodelabel cell_00000000000000000000000000000000" s:attribute="ref">0x0</text>
    <s:alias val="$_constant_"/>
    <rect width="30" height="20" class="cell_00000000000000000000000000000000"/>
    <g s:x="30" s:y="10" s:pid="Y"/>
  </g>
  <g s:type="constant" transform="translate(168,179)" s:width="30" s:height="20" id="cell_0">
    <text x="15" y="-4" class="nodelabel cell_0" s:attribute="ref">0</text>
    <s:alias val="$_constant_"/>
    <rect width="30" height="20" class="cell_0"/>
    <g s:x="30" s:y="10" s:pid="Y"/>
  </g>
  <g s:type="constant" transform="translate(320,702.5)" s:width="30" s:height="20" id="cell_00">
    <text x="15" y="-4" class="nodelabel cell_00" s:attribute="ref">00</text>
    <s:alias val="$_constant_"/>
    <rect width="30" height="20" class="cell_00"/>
    <g s:x="30" s:y="10" s:pid="Y"/>
  </g>
  <g s:type="constant" transform="translate(402,563)" s:width="30" s:height="20" id="cell_10">
    <text x="15" y="-4" class="nodelabel cell_10" s:attribute="ref">10</text>
    <s:alias val="$_constant_"/>
    <rect width="30" height="20" class="cell_10"/>
    <g s:x="30" s:y="10" s:pid="Y"/>
  </g>
  <g s:type="join" transform="translate(413,478)" s:width="4" s:height="40" id="cell_$join$,197,287,">
    <rect width="5" height="40" class="splitjoinBody" s:generic="body"/>
    <s:alias val="$_join_"/>
    <g s:x="5" s:y="20" s:pid="out"/>
    <g transform="translate(0,10)" s:x="0" s:y="10" s:pid="in0">
      <text x="-3" y="-4" class="inputPortLabel">0</text>
    </g>
    <g transform="translate(0,30)" s:x="0" s:y="10" s:pid="in0">
      <text x="-3" y="-4" class="inputPortLabel">1</text>
    </g>
  </g>
  <g s:type="split" transform="translate(709.3333333333334,907)" s:width="5" s:height="40" id="cell_$split$,91,92,">
    <rect width="5" height="40" class="splitjoinBody" s:generic="body"/>
    <s:alias val="$_split_"/>
    <g s:x="0" s:y="20" s:pid="in"/>
    <g transform="translate(4,10)" s:x="4" s:y="10" s:pid="out0">
      <text x="5" y="-4">0</text>
    </g>
    <g transform="translate(4,30)" s:x="4" s:y="10" s:pid="out0">
      <text x="5" y="-4">1</text>
    </g>
  </g>
  <g s:type="split" transform="translate(853.6,1150)" s:width="5" s:height="40" id="cell_$split$,9,10,11,12,">
    <rect width="5" height="80" class="splitjoinBody" s:generic="body"/>
    <s:alias val="$_split_"/>
    <g s:x="0" s:y="20" s:pid="in"/>
    <g transform="translate(4,10)" s:x="4" s:y="10" s:pid="out0">
      <text x="5" y="-4">0</text>
    </g>
    <g transform="translate(4,30)" s:x="4" s:y="10" s:pid="out0">
      <text x="5" y="-4">1</text>
    </g>
    <g transform="translate(4,50)" s:x="4" s:y="10" s:pid="out0">
      <text x="5" y="-4">2</text>
    </g>
    <g transform="translate(4,70)" s:x="4" s:y="10" s:pid="out0">
      <text x="5" y="-4">3</text>
    </g>
  </g>
  <g s:type="split" transform="translate(853.6,1410)" s:width="5" s:height="40" id="cell_$split$,13,14,15,16,">
    <rect width="5" height="80" class="splitjoinBody" s:generic="body"/>
    <s:alias val="$_split_"/>
    <g s:x="0" s:y="20" s:pid="in"/>
    <g transform="translate(4,10)" s:x="4" s:y="10" s:pid="out0">
      <text x="5" y="-4">0</text>
    </g>
    <g transform="translate(4,30)" s:x="4" s:y="10" s:pid="out0">
      <text x="5" y="-4">1</text>
    </g>
    <g transform="translate(4,50)" s:x="4" s:y="10" s:pid="out0">
      <text x="5" y="-4">2</text>
    </g>
    <g transform="translate(4,70)" s:x="4" s:y="10" s:pid="out0">
      <text x="5" y="-4">3</text>
    </g>
  </g>
  <line x1="864.25" x2="915" y1="584" y2="584" class="net_17,18,19,20,21,22,23,24,25,26,27,28,29,30,31,32,33,34,35,36,37,38,39,40,41,42,43,44,45,46,47,48"/>
  <line x1="915" x2="915" y1="584" y2="762.5" class="net_17,18,19,20,21,22,23,24,25,26,27,28,29,30,31,32,33,34,35,36,37,38,39,40,41,42,43,44,45,46,47,48"/>
  <line x1="915" x2="517" y1="762.5" y2="762.5" class="net_17,18,19,20,21,22,23,24,25,26,27,28,29,30,31,32,33,34,35,36,37,38,39,40,41,42,43,44,45,46,47,48"/>
  <line x1="517" x2="517" y1="762.5" y2="647.5" class="net_17,18,19,20,21,22,23,24,25,26,27,28,29,30,31,32,33,34,35,36,37,38,39,40,41,42,43,44,45,46,47,48"/>
  <circle cx="915" cy="762.5" r="2" style="fill:#000" class="net_17,18,19,20,21,22,23,24,25,26,27,28,29,30,31,32,33,34,35,36,37,38,39,40,41,42,43,44,45,46,47,48"/>
  <line x1="517" x2="540" y1="647.5" y2="647.5" class="net_17,18,19,20,21,22,23,24,25,26,27,28,29,30,31,32,33,34,35,36,37,38,39,40,41,42,43,44,45,46,47,48"/>
  <line x1="864.25" x2="915" y1="584" y2="584" class="net_17,18,19,20,21,22,23,24,25,26,27,28,29,30,31,32,33,34,35,36,37,38,39,40,41,42,43,44,45,46,47,48"/>
  <line x1="915" x2="915" y1="584" y2="777.5" class="net_17,18,19,20,21,22,23,24,25,26,27,28,29,30,31,32,33,34,35,36,37,38,39,40,41,42,43,44,45,46,47,48"/>
  <line x1="915" x2="943" y1="777.5" y2="777.5" class="net_17,18,19,20,21,22,23,24,25,26,27,28,29,30,31,32,33,34,35,36,37,38,39,40,41,42,43,44,45,46,47,48"/>
  <line x1="864.25" x2="943" y1="584" y2="584" class="net_17,18,19,20,21,22,23,24,25,26,27,28,29,30,31,32,33,34,35,36,37,38,39,40,41,42,43,44,45,46,47,48"/>
  <line x1="864.25" x2="915" y1="584" y2="584" class="net_17,18,19,20,21,22,23,24,25,26,27,28,29,30,31,32,33,34,35,36,37,38,39,40,41,42,43,44,45,46,47,48"/>
  <line x1="915" x2="915" y1="584" y2="279" class="net_17,18,19,20,21,22,23,24,25,26,27,28,29,30,31,32,33,34,35,36,37,38,39,40,41,42,43,44,45,46,47,48"/>
  <line x1="915" x2="527" y1="279" y2="279" class="net_17,18,19,20,21,22,23,24,25,26,27,28,29,30,31,32,33,34,35,36,37,38,39,40,41,42,43,44,45,46,47,48"/>
  <line x1="527" x2="527" y1="279" y2="361" class="net_17,18,19,20,21,22,23,24,25,26,27,28,29,30,31,32,33,34,35,36,37,38,39,40,41,42,43,44,45,46,47,48"/>
  <circle cx="915" cy="584" r="2" style="fill:#000" class="net_17,18,19,20,21,22,23,24,25,26,27,28,29,30,31,32,33,34,35,36,37,38,39,40,41,42,43,44,45,46,47,48"/>
  <line x1="527" x2="540.3333333333334" y1="361" y2="361" class="net_17,18,19,20,21,22,23,24,25,26,27,28,29,30,31,32,33,34,35,36,37,38,39,40,41,42,43,44,45,46,47,48"/>
  <line x1="864.25" x2="915" y1="584" y2="584" class="net_17,18,19,20,21,22,23,24,25,26,27,28,29,30,31,32,33,34,35,36,37,38,39,40,41,42,43,44,45,46,47,48"/>
  <line x1="915" x2="915" y1="584" y2="762.5" class="net_17,18,19,20,21,22,23,24,25,26,27,28,29,30,31,32,33,34,35,36,37,38,39,40,41,42,43,44,45,46,47,48"/>
  <line x1="915" x2="647" y1="762.5" y2="762.5" class="net_17,18,19,20,21,22,23,24,25,26,27,28,29,30,31,32,33,34,35,36,37,38,39,40,41,42,43,44,45,46,47,48"/>
  <line x1="647" x2="647" y1="762.5" y2="320" class="net_17,18,19,20,21,22,23,24,25,26,27,28,29,30,31,32,33,34,35,36,37,38,39,40,41,42,43,44,45,46,47,48"/>
  <circle cx="647" cy="762.5" r="2" style="fill:#000" class="net_17,18,19,20,21,22,23,24,25,26,27,28,29,30,31,32,33,34,35,36,37,38,39,40,41,42,43,44,45,46,47,48"/>
  <line x1="647" x2="699.3333333333334" y1="320" y2="320" class="net_17,18,19,20,21,22,23,24,25,26,27,28,29,30,31,32,33,34,35,36,37,38,39,40,41,42,43,44,45,46,47,48"/>
  <line x1="198" x2="280" y1="478.5" y2="478.5" class="net_202"/>
  <line x1="280" x2="280" y1="478.5" y2="662.5" class="net_202"/>
  <circle cx="280" cy="478.5" r="2" style="fill:#000" class="net_202"/>
  <line x1="280" x2="540" y1="662.5" y2="662.5" class="net_202"/>
  <line x1="198" x2="280" y1="478.5" y2="478.5" class="net_202"/>
  <line x1="280" x2="280" y1="478.5" y2="56" class="net_202"/>
  <line x1="280" x2="647" y1="56" y2="56" class="net_202"/>
  <line x1="647" x2="647" y1="56" y2="118" class="net_202"/>
  <line x1="647" x2="696" y1="118" y2="118" class="net_202"/>
  <line x1="198" x2="327.3333333333333" y1="478.5" y2="478.5" class="net_202"/>
  <line x1="861" x2="943" y1="792.5" y2="792.5" class="net_203,204,205,206,207,208,209,210,211,212,213,214,215,216,217,218,219,220,221,222,223,224,225,226,227,228"/>
  <line x1="861" x2="925" y1="792.5" y2="792.5" class="net_203,204,205,206,207,208,209,210,211,212,213,214,215,216,217,218,219,220,221,222,223,224,225,226,227,228"/>
  <line x1="925" x2="925" y1="792.5" y2="599" class="net_203,204,205,206,207,208,209,210,211,212,213,214,215,216,217,218,219,220,221,222,223,224,225,226,227,228"/>
  <circle cx="925" cy="792.5" r="2" style="fill:#000" class="net_203,204,205,206,207,208,209,210,211,212,213,214,215,216,217,218,219,220,221,222,223,224,225,226,227,228"/>
  <line x1="925" x2="943" y1="599" y2="599" class="net_203,204,205,206,207,208,209,210,211,212,213,214,215,216,217,218,219,220,221,222,223,224,225,226,227,228"/>
  <line x1="427" x2="467" y1="239" y2="239" class="net_82"/>
  <line x1="965" x2="1030" y1="128" y2="128" class="net_83"/>
  <line x1="1030" x2="1030" y1="128" y2="12" class="net_83"/>
  <line x1="1030" x2="452" y1="12" y2="12" class="net_83"/>
  <line x1="452" x2="452" y1="12" y2="254" class="net_83"/>
  <line x1="452" x2="467" y1="254" y2="254" class="net_83"/>
  <line x1="864.25" x2="915" y1="128" y2="128" class="net_85"/>
  <line x1="915" x2="915" y1="128" y2="45" class="net_85"/>
  <line x1="915" x2="382" y1="45" y2="45" class="net_85"/>
  <line x1="382" x2="382" y1="45" y2="371" class="net_85"/>
  <circle cx="915" cy="128" r="2" style="fill:#000" class="net_85"/>
  <line x1="382" x2="402" y1="371" y2="371" class="net_85"/>
  <line x1="864.25" x2="915" y1="128" y2="128" class="net_85"/>
  <line x1="915" x2="915" y1="128" y2="209" class="net_85"/>
  <line x1="915" x2="310" y1="209" y2="209" class="net_85"/>
  <line x1="310" x2="310" y1="209" y2="393.5" class="net_85"/>
  <line x1="310" x2="320" y1="393.5" y2="393.5" class="net_85"/>
  <line x1="864.25" x2="940" y1="128" y2="128" class="net_85"/>
  <line x1="864.25" x2="915" y1="128" y2="128" class="net_85"/>
  <line x1="915" x2="915" y1="128" y2="209" class="net_85"/>
  <line x1="915" x2="517" y1="209" y2="209" class="net_85"/>
  <line x1="517" x2="517" y1="209" y2="169" class="net_85"/>
  <circle cx="517" cy="209" r="2" style="fill:#000" class="net_85"/>
  <line x1="517" x2="540.3333333333334" y1="169" y2="169" class="net_85"/>
  <line x1="864.25" x2="915" y1="128" y2="128" class="net_85"/>
  <line x1="915" x2="915" y1="128" y2="209" class="net_85"/>
  <line x1="915" x2="582" y1="209" y2="209" class="net_85"/>
  <line x1="582" x2="582" y1="209" y2="108" class="net_85"/>
  <circle cx="582" cy="209" r="2" style="fill:#000" class="net_85"/>
  <line x1="582" x2="603.6666666666666" y1="108" y2="108" class="net_85"/>
  <line x1="965" x2="1020" y1="591.5" y2="591.5" class="net_86"/>
  <line x1="1020" x2="1020" y1="591.5" y2="23" class="net_86"/>
  <line x1="1020" x2="372" y1="23" y2="23" class="net_86"/>
  <line x1="372" x2="372" y1="23" y2="386" class="net_86"/>
  <line x1="372" x2="402" y1="386" y2="386" class="net_86"/>
  <line x1="965" x2="1010" y1="785" y2="785" class="net_81"/>
  <line x1="1010" x2="1010" y1="785" y2="34" class="net_81"/>
  <line x1="1010" x2="300" y1="34" y2="34" class="net_81"/>
  <line x1="300" x2="300" y1="34" y2="408.5" class="net_81"/>
  <line x1="300" x2="320" y1="408.5" y2="408.5" class="net_81"/>
  <line x1="348" x2="402" y1="239" y2="239" class="net_4"/>
  <line x1="40" x2="382" y1="1170.5" y2="1170.5" class="net_2"/>
  <line x1="382" x2="382" y1="1170.5" y2="947.5" class="net_2"/>
  <line x1="382" x2="597" y1="947.5" y2="947.5" class="net_2"/>
  <line x1="40" x2="82" y1="1170.5" y2="1170.5" class="net_2"/>
  <line x1="82" x2="82" y1="1170.5" y2="148" class="net_2"/>
  <circle cx="82" cy="1170.5" r="2" style="fill:#000" class="net_2"/>
  <line x1="82" x2="834.25" y1="148" y2="148" class="net_2"/>
  <line x1="40" x2="290" y1="1170.5" y2="1170.5" class="net_2"/>
  <line x1="290" x2="290" y1="1170.5" y2="604" class="net_2"/>
  <circle cx="290" cy="1170.5" r="2" style="fill:#000" class="net_2"/>
  <line x1="290" x2="834.25" y1="604" y2="604" class="net_2"/>
  <line x1="40" x2="687" y1="1170.5" y2="1170.5" class="net_2"/>
  <line x1="40" x2="637" y1="1170.5" y2="1170.5" class="net_2"/>
  <line x1="637" x2="637" y1="1170.5" y2="1430.5" class="net_2"/>
  <line x1="637" x2="681" y1="1430.5" y2="1430.5" class="net_2"/>
  <line x1="40" x2="82" y1="1170.5" y2="1170.5" class="net_2"/>
  <line x1="82" x2="82" y1="1170.5" y2="553" class="net_2"/>
  <circle cx="82" cy="553" r="2" style="fill:#000" class="net_2"/>
  <line x1="82" x2="168" y1="553" y2="553" class="net_2"/>
  <line x1="40" x2="637" y1="1170.5" y2="1170.5" class="net_2"/>
  <line x1="637" x2="637" y1="1170.5" y2="1005.5" class="net_2"/>
  <circle cx="637" cy="1170.5" r="2" style="fill:#000" class="net_2"/>
  <line x1="637" x2="831" y1="1005.5" y2="1005.5" class="net_2"/>
  <line x1="40" x2="382" y1="1170.5" y2="1170.5" class="net_2"/>
  <line x1="382" x2="382" y1="1170.5" y2="947.5" class="net_2"/>
  <line x1="382" x2="452" y1="947.5" y2="947.5" class="net_2"/>
  <line x1="452" x2="452" y1="947.5" y2="894" class="net_2"/>
  <line x1="452" x2="785" y1="894" y2="894" class="net_2"/>
  <line x1="785" x2="785" y1="894" y2="917.5" class="net_2"/>
  <circle cx="382" cy="1170.5" r="2" style="fill:#000" class="net_2"/>
  <circle cx="452" cy="947.5" r="2" style="fill:#000" class="net_2"/>
  <line x1="785" x2="831" y1="917.5" y2="917.5" class="net_2"/>
  <line x1="558.6666666666666" x2="572" y1="722.5" y2="722.5" class="net_89,90"/>
  <line x1="572" x2="572" y1="722.5" y2="927.5" class="net_89,90"/>
  <line x1="572" x2="597" y1="927.5" y2="927.5" class="net_89,90"/>
  <line x1="716" x2="775" y1="108" y2="108" class="net_93"/>
  <line x1="775" x2="775" y1="108" y2="128" class="net_93"/>
  <line x1="775" x2="834.25" y1="128" y2="128" class="net_93"/>
  <line x1="719.3333333333334" x2="775" y1="310" y2="310" class="net_94,95,96,97,98,99,100,101,102,103,104,105,106,107,108,109,110,111,112,113,114,115,116,117,118,119,120,121,122,123,124,125"/>
  <line x1="775" x2="775" y1="310" y2="584" class="net_94,95,96,97,98,99,100,101,102,103,104,105,106,107,108,109,110,111,112,113,114,115,116,117,118,119,120,121,122,123,124,125"/>
  <line x1="775" x2="834.25" y1="584" y2="584" class="net_94,95,96,97,98,99,100,101,102,103,104,105,106,107,108,109,110,111,112,113,114,115,116,117,118,119,120,121,122,123,124,125"/>
  <line x1="497" x2="540.3333333333334" y1="381" y2="381" class="net_255,256,257,258,259,260,261,262,263,264,265,266,267,268,269,270,271,272,273,274,275,276,277,278,279,280,281,282,283,284,285,286"/>
  <line x1="350" x2="550.3333333333334" y1="401" y2="401" class="net_88"/>
  <line x1="550.3333333333334" x2="550.3333333333334" y1="401" y2="386" class="net_88"/>
  <line x1="350" x2="392" y1="401" y2="401" class="net_88"/>
  <line x1="392" x2="392" y1="401" y2="269" class="net_88"/>
  <line x1="392" x2="550.3333333333334" y1="269" y2="269" class="net_88"/>
  <circle cx="392" cy="401" r="2" style="fill:#000" class="net_88"/>
  <line x1="550.3333333333334" x2="550.3333333333334" y1="269" y2="194" class="net_88"/>
  <line x1="350" x2="392" y1="401" y2="401" class="net_88"/>
  <line x1="392" x2="392" y1="401" y2="732.5" class="net_88"/>
  <line x1="392" x2="418" y1="732.5" y2="732.5" class="net_88"/>
  <line x1="418" x2="418" y1="732.5" y2="717.5" class="net_88"/>
  <line x1="560.3333333333334" x2="582" y1="371" y2="371" class="net_126,127,128,129,130,131,132,133,134,135,136,137,138,139,140,141,142,143,144,145,146,147,148,149,150,151,152,153,154,155,156,157"/>
  <line x1="582" x2="582" y1="371" y2="635" class="net_126,127,128,129,130,131,132,133,134,135,136,137,138,139,140,141,142,143,144,145,146,147,148,149,150,151,152,153,154,155,156,157"/>
  <line x1="582" x2="600.3333333333334" y1="635" y2="635" class="net_126,127,128,129,130,131,132,133,134,135,136,137,138,139,140,141,142,143,144,145,146,147,148,149,150,151,152,153,154,155,156,157"/>
  <line x1="562" x2="600.3333333333334" y1="655" y2="655" class="net_49,50,51,52,53,54,55,56,57,58,59,60,61,62,63,64,65,66,67,68,69,70,71,72,73,74,75,76,77,78,79,80"/>
  <line x1="432" x2="452" y1="378.5" y2="378.5" class="net_87"/>
  <line x1="452" x2="452" y1="378.5" y2="615" class="net_87"/>
  <line x1="452" x2="572" y1="615" y2="615" class="net_87"/>
  <line x1="572" x2="572" y1="615" y2="675" class="net_87"/>
  <line x1="572" x2="610.3333333333334" y1="675" y2="675" class="net_87"/>
  <circle cx="452" cy="615" r="2" style="fill:#000" class="net_87"/>
  <circle cx="572" cy="615" r="2" style="fill:#000" class="net_87"/>
  <line x1="610.3333333333334" x2="610.3333333333334" y1="675" y2="660" class="net_87"/>
  <line x1="432" x2="452" y1="378.5" y2="378.5" class="net_87"/>
  <line x1="452" x2="452" y1="378.5" y2="615" class="net_87"/>
  <line x1="452" x2="613.6666666666666" y1="615" y2="615" class="net_87"/>
  <line x1="613.6666666666666" x2="613.6666666666666" y1="615" y2="113" class="net_87"/>
  <line x1="432" x2="452" y1="378.5" y2="378.5" class="net_87"/>
  <line x1="452" x2="452" y1="378.5" y2="742.5" class="net_87"/>
  <line x1="452" x2="483.6666666666667" y1="742.5" y2="742.5" class="net_87"/>
  <line x1="483.6666666666667" x2="483.6666666666667" y1="742.5" y2="727.5" class="net_87"/>
  <line x1="620.3333333333334" x2="637" y1="645" y2="645" class="net_158,159,160,161,162,163,164,165,166,167,168,169,170,171,172,173,174,175,176,177,178,179,180,181,182,183,184,185,186,187,188,189"/>
  <line x1="637" x2="637" y1="645" y2="300" class="net_158,159,160,161,162,163,164,165,166,167,168,169,170,171,172,173,174,175,176,177,178,179,180,181,182,183,184,185,186,187,188,189"/>
  <line x1="637" x2="699.3333333333334" y1="300" y2="300" class="net_158,159,160,161,162,163,164,165,166,167,168,169,170,171,172,173,174,175,176,177,178,179,180,181,182,183,184,185,186,187,188,189"/>
  <line x1="497" x2="507" y1="246.5" y2="246.5" class="net_84"/>
  <line x1="507" x2="507" y1="246.5" y2="340" class="net_84"/>
  <line x1="507" x2="709.3333333333334" y1="340" y2="340" class="net_84"/>
  <circle cx="507" cy="246.5" r="2" style="fill:#000" class="net_84"/>
  <circle cx="507" cy="340" r="2" style="fill:#000" class="net_84"/>
  <line x1="709.3333333333334" x2="709.3333333333334" y1="340" y2="325" class="net_84"/>
  <line x1="497" x2="507" y1="246.5" y2="246.5" class="net_84"/>
  <line x1="507" x2="507" y1="246.5" y2="67" class="net_84"/>
  <line x1="507" x2="637" y1="67" y2="67" class="net_84"/>
  <line x1="637" x2="637" y1="67" y2="138" class="net_84"/>
  <line x1="637" x2="706" y1="138" y2="138" class="net_84"/>
  <line x1="706" x2="706" y1="138" y2="123" class="net_84"/>
  <line x1="497" x2="507" y1="246.5" y2="246.5" class="net_84"/>
  <line x1="507" x2="507" y1="246.5" y2="752.5" class="net_84"/>
  <line x1="507" x2="548.6666666666666" y1="752.5" y2="752.5" class="net_84"/>
  <line x1="548.6666666666666" x2="548.6666666666666" y1="752.5" y2="737.5" class="net_84"/>
  <line x1="198" x2="540.3333333333334" y1="189" y2="189" class="net_287"/>
  <line x1="198" x2="290" y1="189" y2="189" class="net_287"/>
  <line x1="290" x2="290" y1="189" y2="458.5" class="net_287"/>
  <circle cx="290" cy="189" r="2" style="fill:#000" class="net_287"/>
  <circle cx="290" cy="458.5" r="2" style="fill:#000" class="net_287"/>
  <line x1="290" x2="327.3333333333333" y1="458.5" y2="458.5" class="net_287"/>
  <line x1="198" x2="290" y1="189" y2="189" class="net_287"/>
  <line x1="290" x2="290" y1="189" y2="508.5" class="net_287"/>
  <line x1="290" x2="413" y1="508.5" y2="508.5" class="net_287"/>
  <line x1="560.3333333333334" x2="572" y1="179" y2="179" class="net_190"/>
  <line x1="572" x2="572" y1="179" y2="88" class="net_190"/>
  <line x1="572" x2="603.6666666666666" y1="88" y2="88" class="net_190"/>
  <line x1="623.6666666666666" x2="696" y1="98" y2="98" class="net_191"/>
  <line x1="627" x2="637" y1="927.5" y2="927.5" class="net_91,92"/>
  <line x1="637" x2="637" y1="927.5" y2="967.5" class="net_91,92"/>
  <line x1="637" x2="372" y1="967.5" y2="967.5" class="net_91,92"/>
  <line x1="372" x2="372" y1="967.5" y2="692.5" class="net_91,92"/>
  <line x1="372" x2="408" y1="692.5" y2="692.5" class="net_91,92"/>
  <line x1="627" x2="637" y1="927.5" y2="927.5" class="net_91,92"/>
  <line x1="637" x2="637" y1="927.5" y2="907.5" class="net_91,92"/>
  <line x1="637" x2="442" y1="907.5" y2="907.5" class="net_91,92"/>
  <line x1="442" x2="442" y1="907.5" y2="722.5" class="net_91,92"/>
  <circle cx="637" cy="927.5" r="2" style="fill:#000" class="net_91,92"/>
  <line x1="442" x2="473.6666666666667" y1="722.5" y2="722.5" class="net_91,92"/>
  <line x1="627" x2="709.3333333333334" y1="927.5" y2="927.5" class="net_91,92"/>
  <line x1="350" x2="408" y1="712.5" y2="712.5" class="net_289,290"/>
  <line x1="428" x2="473.6666666666667" y1="702.5" y2="702.5" class="net_192,193"/>
  <line x1="199" x2="300" y1="573" y2="573" class="net_196"/>
  <line x1="300" x2="300" y1="573" y2="498.5" class="net_196"/>
  <line x1="300" x2="337.3333333333333" y1="498.5" y2="498.5" class="net_196"/>
  <line x1="337.3333333333333" x2="337.3333333333333" y1="498.5" y2="483.5" class="net_196"/>
  <line x1="419" x2="442" y1="498.5" y2="498.5" class="net_197,287"/>
  <line x1="442" x2="442" y1="498.5" y2="553" class="net_197,287"/>
  <line x1="442" x2="470.3333333333333" y1="553" y2="553" class="net_197,287"/>
  <line x1="432" x2="470.3333333333333" y1="573" y2="573" class="net_294,295"/>
  <line x1="199" x2="480.3333333333333" y1="593" y2="593" class="net_198"/>
  <line x1="480.3333333333333" x2="480.3333333333333" y1="593" y2="578" class="net_198"/>
  <line x1="493.6666666666667" x2="538.6666666666666" y1="712.5" y2="712.5" class="net_194,195"/>
  <line x1="490.3333333333333" x2="527" y1="563" y2="563" class="net_199,200"/>
  <line x1="527" x2="527" y1="563" y2="732.5" class="net_199,200"/>
  <line x1="527" x2="538.6666666666666" y1="732.5" y2="732.5" class="net_199,200"/>
  <line x1="40" x2="168" y1="573" y2="573" class="net_3"/>
  <line x1="714.3333333333334" x2="775" y1="917.5" y2="917.5" class="net_91"/>
  <line x1="775" x2="775" y1="917.5" y2="1025.5" class="net_91"/>
  <line x1="775" x2="831" y1="1025.5" y2="1025.5" class="net_91"/>
  <line x1="714.3333333333334" x2="831" y1="937.5" y2="937.5" class="net_92"/>
  <line x1="199" x2="270" y1="613" y2="613" class="net_5,6"/>
  <line x1="270" x2="270" y1="613" y2="852.5" class="net_5,6"/>
  <line x1="270" x2="940" y1="852.5" y2="852.5" class="net_5,6"/>
  <line x1="862" x2="940" y1="1005.5" y2="1005.5" class="net_7"/>
  <line x1="862" x2="940" y1="917.5" y2="917.5" class="net_8"/>
  <line x1="858.6" x2="915" y1="1160.5" y2="1160.5" class="net_9"/>
  <line x1="915" x2="915" y1="1160.5" y2="1070.5" class="net_9"/>
  <line x1="915" x2="940" y1="1070.5" y2="1070.5" class="net_9"/>
  <line x1="858.6" x2="925" y1="1180.5" y2="1180.5" class="net_10"/>
  <line x1="925" x2="925" y1="1180.5" y2="1135.5" class="net_10"/>
  <line x1="925" x2="940" y1="1135.5" y2="1135.5" class="net_10"/>
  <line x1="858.6" x2="940" y1="1200.5" y2="1200.5" class="net_11"/>
  <line x1="858.6" x2="915" y1="1220.5" y2="1220.5" class="net_12"/>
  <line x1="915" x2="915" y1="1220.5" y2="1265.5" class="net_12"/>
  <line x1="915" x2="940" y1="1265.5" y2="1265.5" class="net_12"/>
  <line x1="858.6" x2="915" y1="1420.5" y2="1420.5" class="net_13"/>
  <line x1="915" x2="915" y1="1420.5" y2="1330.5" class="net_13"/>
  <line x1="915" x2="940" y1="1330.5" y2="1330.5" class="net_13"/>
  <line x1="858.6" x2="925" y1="1440.5" y2="1440.5" class="net_14"/>
  <line x1="925" x2="925" y1="1440.5" y2="1395.5" class="net_14"/>
  <line x1="925" x2="940" y1="1395.5" y2="1395.5" class="net_14"/>
  <line x1="858.6" x2="940" y1="1460.5" y2="1460.5" class="net_15"/>
  <line x1="858.6" x2="915" y1="1480.5" y2="1480.5" class="net_16"/>
  <line x1="915" x2="915" y1="1480.5" y2="1525.5" class="net_16"/>
  <line x1="915" x2="940" y1="1525.5" y2="1525.5" class="net_16"/>
  <line x1="347.3333333333333" x2="372" y1="468.5" y2="468.5" class="net_197"/>
  <line x1="372" x2="372" y1="468.5" y2="488.5" class="net_197"/>
  <line x1="372" x2="413" y1="488.5" y2="488.5" class="net_197"/>
  <line x1="718" x2="853.6" y1="1170.5" y2="1170.5" class="net_9,10,11,12"/>
  <line x1="712" x2="853.6" y1="1430.5" y2="1430.5" class="net_13,14,15,16"/>
</svg>
